Coordinates
version=1
nRows=24
nColumns=24
inDegrees=yes

Units are S.I. units (second, meters, Newtons, ...)
Angles are in degrees.

endheader
time	pelvis_tilt	pelvis_list	pelvis_rotation	pelvis_tx	pelvis_ty	pelvis_tz	hip_flexion_r	hip_adduction_r	hip_rotation_r	knee_angle_r	ankle_angle_r	subtalar_angle_r	mtp_angle_r	hip_flexion_l	hip_adduction_l	hip_rotation_l	knee_angle_l	ankle_angle_l	subtalar_angle_l	mtp_angle_l	lumbar_extension	lumbar_bending	lumbar_rotation
      4.28000000	     -8.36565684	      1.87211238	     -8.35715289	     -0.44675768	     -0.05367488	      0.62565885	     -9.57089096	     -1.43438434	      5.14915140	    -12.45653607	     13.83997603	      0.67166925	      4.16215195	     38.19647991	     -3.78248581	    -19.05896485	    -16.28073693	     -4.80219802	     13.93611730	     11.54010917	      3.96419287	     -1.15730901	     10.21805004
      4.28500000	     -8.46443823	      2.29579532	     -8.36045861	     -0.43883366	     -0.05489152	      0.62521422	     -9.61165625	     -1.97731766	      5.13313720	    -13.10536848	     13.63698392	      0.77901339	      4.26453571	     38.37204249	     -3.39955840	    -19.18886523	    -17.01245144	     -5.46596586	     13.16033712	     12.15162758	      4.17555472	     -1.66058796	     10.14729161
      4.29000000	     -8.54660099	      2.72110766	     -8.31595857	     -0.43088462	     -0.05601012	      0.62465919	     -9.65221978	     -2.52552857	      5.09023730	    -13.79456454	     13.33482334	      0.91363234	      4.40148037	     38.57591541	     -2.98411953	    -19.18059021	    -17.86085088	     -6.15608814	     12.36129367	     12.68298802	      4.36637382	     -2.15750509	     10.04785547
      4.29500000	     -8.62537548	      3.16302628	     -8.26750679	     -0.42294428	     -0.05704667	      0.62413495	     -9.64754543	     -3.08644175	      5.05484014	    -14.57183307	     12.95341630	      1.02074885	      4.55919789	     38.81638997	     -2.56264140	    -19.06759467	    -18.82494745	     -6.77605978	     11.64505026	     13.03953149	      4.55405111	     -2.68406771	      9.90169875
      4.30000000	     -8.69702615	      3.59653143	     -8.15946078	     -0.41497053	     -0.05799436	      0.62348406	     -9.63286419	     -3.64229919	      4.96460679	    -15.39489020	     12.47161057	      1.20569798	      4.77293617	     39.09575673	     -2.10660266	    -18.83362284	    -19.89051951	     -7.35507205	     10.89309826	     13.31927639	      4.73267570	     -3.19861775	      9.74777468
      4.30500000	     -8.76106385	      4.02469598	     -8.01762113	     -0.40698704	     -0.05885928	      0.62279969	     -9.59099790	     -4.19352963	      4.81998435	    -16.28921356	     11.90455478	      1.44614147	      5.05665549	     39.40085188	     -1.63464906	    -18.50486661	    -21.04227138	     -7.83866051	     10.18383629	     13.49264644	      4.90058386	     -3.71655941	      9.56377429
      4.31000000	     -8.82268764	      4.44734981	     -7.85655797	     -0.39899071	     -0.05963105	      0.62208325	     -9.49955981	     -4.74053367	      4.65984823	    -17.28805575	     11.22694244	      1.71632668	      5.38597942	     39.71055132	     -1.15060954	    -18.12815201	    -22.23301254	     -8.18409232	      9.55752330	     13.52261465	      5.06538416	     -4.22876914	      9.35827695
      4.31500000	     -8.88946011	      4.86598114	     -7.67357954	     -0.39100851	     -0.06031266	      0.62136601	     -9.34707016	     -5.28001119	      4.49800603	    -18.39562502	     10.44815175	      2.01475650	      5.72589211	     40.01697543	     -0.65400782	    -17.72103505	    -23.42318883	     -8.42139561	      9.03832780	     13.45188410	      5.23051443	     -4.74348280	      9.13323912
      4.32000000	     -8.95866005	      5.25173518	     -7.45602387	     -0.38292969	     -0.06093021	      0.62057752	     -9.15699635	     -5.79209663	      4.26166597	    -19.58883430	      9.54078676	      2.38709477	      6.07683380	     40.30711062	     -0.16010845	    -17.36921619	    -24.61396039	     -8.47954033	      8.53427803	     13.34525176	      5.40928927	     -5.21785992	      8.87105704
      4.32500000	     -9.01150393	      5.57085966	     -7.22479070	     -0.37502355	     -0.06141524	      0.61970348	     -8.88840761	     -6.25770369	      3.91788673	    -20.94185890	      8.53780603	      2.96220323	      6.54509368	     40.54514266	      0.30815871	    -16.94013521	    -25.74006420	     -8.46014926	      8.06859997	     13.17057581	      5.52510110	     -5.61847462	      8.62394953
      4.33000000	     -9.05413100	      5.87885867	     -6.97374209	     -0.36710467	     -0.06175005	      0.61884410	     -8.58334533	     -6.71758483	      3.56488767	    -22.37024567	      7.40161532	      3.56078783	      7.06018199	     40.70738683	      0.78758603	    -16.54797174	    -26.76513624	     -8.34859005	      7.71240189	     12.99130299	      5.63189238	     -6.01425437	      8.35386355
      4.33500000	     -9.08604513	      6.14857204	     -6.70878670	     -0.35922421	     -0.06195672	      0.61795924	     -8.22793829	     -7.14851817	      3.18110274	    -23.89426556	      6.13930801	      4.18787252	      7.59807980	     40.79005450	      1.25308559	    -16.21420906	    -27.68014629	     -8.12692158	      7.40423608	     12.86656424	      5.71772501	     -6.36984188	      8.08116686
      4.34000000	     -9.10882438	      6.38610570	     -6.43149438	     -0.35140835	     -0.06203738	      0.61708366	     -7.81612194	     -7.55246005	      2.77387612	    -25.51372003	      4.77400763	      4.81248868	      8.08653598	     40.79020669	      1.70179367	    -15.95316912	    -28.47334659	     -7.81416557	      7.17133500	     12.85568818	      5.78022458	     -6.69710954	      7.80263595
      4.34500000	     -9.14375729	      6.62344263	     -6.12955332	     -0.34366281	     -0.06196642	      0.61610821	     -7.33390368	     -7.97564699	      2.34792193	    -27.18762064	      3.30680102	      5.51413048	      8.65020892	     40.72382586	      2.19146618	    -15.67448743	    -29.11185940	     -7.50047159	      6.96663255	     12.89656501	      5.84515350	     -7.01400271	      7.50851592
      4.35000000	     -9.16861689	      6.84381497	     -5.82326556	     -0.33601459	     -0.06176166	      0.61516070	     -6.79239988	     -8.38694503	      1.91092262	    -28.93502888	      1.76271724	      6.15621684	      9.19903201	     40.56954719	      2.67412769	    -15.45697789	    -29.61379209	     -7.12142798	      6.82907017	     13.04380312	      5.88921816	     -7.31830409	      7.21831651
      4.35500000	     -9.20118899	      7.07047837	     -5.51180043	     -0.32846708	     -0.06144484	      0.61416086	     -6.17935550	     -8.81689242	      1.48869504	    -30.72641875	      0.17525192	      6.76350662	      9.80043485	     40.35397168	      3.18234861	    -15.25544485	    -29.98093088	     -6.72514298	      6.70179803	     13.27542854	      5.93280898	     -7.62405873	      6.91988835
      4.36000000	     -9.22401572	      7.29320061	     -5.22375332	     -0.32106732	     -0.06101782	      0.61313755	     -5.49171768	     -9.25965222	      1.07780621	    -32.57591295	     -1.45250703	      7.25504179	     10.60089660	     40.06486876	      3.69650327	    -15.05529468	    -30.21927974	     -6.32568197	      6.49613118	     13.63152539	      5.95337135	     -7.91193771	      6.68139100
      4.36500000	     -9.27504303	      7.52396833	     -4.92724558	     -0.31372805	     -0.06052154	      0.61218879	     -4.72098958	     -9.69141816	      0.73529633	    -34.47072934	     -3.05608603	      7.64239193	     11.10123080	     39.75416409	      4.19260719	    -14.96894136	    -30.38014289	     -5.86509877	      6.52558694	     13.97833617	      6.00799045	     -8.21732769	      6.40226830
      4.37000000	     -9.30453922	      7.76655669	     -4.64746570	     -0.30655410	     -0.05992434	      0.61133351	     -3.89483020	    -10.11728760	      0.45361359	    -36.43716673	     -4.59260774	      7.79802417	     11.36491473	     39.37775012	      4.69114007	    -14.89104120	    -30.46051305	     -5.37697861	      6.63622933	     14.24618324	      6.02358961	     -8.54449737	      6.14191779
      4.37500000	     -9.39458998	      8.04362714	     -4.38475142	     -0.29949233	     -0.05929679	      0.61036789	     -2.92996472	    -10.59232726	      0.24756293	    -38.43221112	     -6.04897891	      7.97078132	     11.82917852	     39.02665884	      5.22956785	    -14.81995442	    -30.43954625	     -4.98524781	      6.58122378	     14.55421842	      6.10880489	     -8.87968571	      5.90177907
      4.38000000	     -9.41958042	      8.29540501	     -4.12867341	     -0.29249111	     -0.05857745	      0.60954403	     -2.00066294	    -11.01195055	      0.07265971	    -40.43916088	     -7.39027181	      7.84137928	     12.03764559	     38.56687444	      5.73912189	    -14.73668026	    -30.37540137	     -4.45115097	      6.69019653	     14.79246798	      6.12052662	     -9.21302992	      5.68434663
      4.38500000	     -9.49143304	      8.59750181	     -3.88801368	     -0.28558419	     -0.05784595	      0.60870696	     -0.95727509	    -11.47510282	     -0.02256161	    -42.47209149	     -8.58146569	      7.58993750	     12.27710958	     38.13289281	      6.28562216	    -14.69169699	    -30.24550471	     -3.99483626	      6.75075611	     14.99939653	      6.18712090	     -9.58263372	      5.46293359
      4.39000000	     -9.56515850	      8.90571164	     -3.65695169	     -0.27874163	     -0.05706766	      0.60791110	      0.12661098	    -11.92747242	     -0.06083814	    -44.49642343	     -9.61354662	      7.18364367	     12.48501480	     37.67479852	      6.83506950	    -14.63826399	    -30.06780172	     -3.54611237	      6.81761377	     15.17508176	      6.25874107	     -9.95894157	      5.25751070
      4.39500000	     -9.73756402	      9.22787594	     -3.48199723	     -0.27200596	     -0.05633371	      0.60716139	      1.38966515	    -12.37538175	      0.03306107	    -46.51788884	    -10.49023695	      6.64983856	     12.96117054	     37.30551897	      7.35968000	    -14.60832161	    -29.83697150	     -3.17860194	      6.77551928	     15.38816741	      6.44928510	    -10.33275853	      5.14587913
